<svg xmlns="http://www.w3.org/2000/svg" viewBox="0 0 180 320" width="180" height="320"><rect x="0" y="0" width="180" height="320" rx="12" fill="transparent" stroke="none" stroke-width="1"/><rect x="6" y="6" width="168" height="308" rx="22" fill="#111827" stroke="none" stroke-width="1"/><rect x="12" y="14" width="156" height="292" rx="16" fill="#ffffff" stroke="none" stroke-width="1"/><text x="150" y="28" font-size="8" font-weight="700" fill="#fff" text-anchor="middle" direction="ltr" font-family="Segoe UI, Tahoma, Arial, 'Noto Sans Arabic', sans-serif">9:41</text><defs><linearGradient id="i" x1="0" y1="0" x2="1" y2="1"><stop offset="0" stop-color="#7c3aed"/><stop offset="1" stop-color="#0ea5e9"/></linearGradient></defs><rect x="12" y="14" width="156" height="292" rx="16" fill="url(#i)" stroke="none" stroke-width="1"/><rect x="22" y="60" width="28" height="28" rx="7" fill="rgba(255,255,255,0.3)" stroke="none" stroke-width="1"/><rect x="58" y="60" width="28" height="28" rx="7" fill="rgba(255,255,255,0.3)" stroke="none" stroke-width="1"/><rect x="94" y="60" width="28" height="28" rx="7" fill="rgba(255,255,255,0.3)" stroke="none" stroke-width="1"/><rect x="130" y="60" width="28" height="28" rx="7" fill="rgba(255,255,255,0.3)" stroke="none" stroke-width="1"/><rect x="58" y="110" width="28" height="28" rx="7" fill="rgba(255,255,255,0.3)" stroke="none" stroke-width="1"/><rect x="94" y="110" width="28" height="28" rx="7" fill="rgba(255,255,255,0.3)" stroke="none" stroke-width="1"/><rect x="130" y="110" width="28" height="28" rx="7" fill="rgba(255,255,255,0.3)" stroke="none" stroke-width="1"/><g transform="translate(22 110) scale(0.5833333333333334)"><rect x="0" y="0" width="48" height="48" rx="11" fill="#1e293b" stroke="none" stroke-width="1"/><rect x="10" y="12" width="28" height="24" rx="4" fill="#fff" stroke="none" stroke-width="1"/><rect x="10" y="12" width="28" height="7" rx="3" fill="#38bdf8" stroke="none" stroke-width="1"/><text x="24" y="32" font-size="11" font-weight="800" fill="#1e293b" text-anchor="middle" direction="ltr" font-family="Segoe UI, Tahoma, Arial, 'Noto Sans Arabic', sans-serif">RM</text></g><text x="36" y="150" font-size="6.5" font-weight="400" fill="#fff" text-anchor="middle" direction="rtl" font-family="Segoe UI, Tahoma, Arial, 'Noto Sans Arabic', sans-serif">جدول الورديات</text><rect x="13" y="101" width="46" height="58" rx="10" fill="none" stroke="#f59e0b" stroke-width="3"/><text x="90" y="226" font-size="9" font-weight="700" fill="#fff" text-anchor="middle" direction="rtl" font-family="Segoe UI, Tahoma, Arial, 'Noto Sans Arabic', sans-serif">افتح البرنامج من أيقونته</text><text x="90" y="242" font-size="8.5" font-weight="400" fill="#ede9fe" text-anchor="middle" direction="rtl" font-family="Segoe UI, Tahoma, Arial, 'Noto Sans Arabic', sans-serif">ويعمل دون إنترنت</text><circle cx="56" cy="100" r="11" fill="#f59e0b" stroke="#fff" stroke-width="2"/><text x="56" y="104" font-size="12" font-weight="700" fill="#fff" text-anchor="middle" direction="ltr" font-family="Segoe UI, Tahoma, Arial, 'Noto Sans Arabic', sans-serif">4</text></svg>
