<svg xmlns="http://www.w3.org/2000/svg" viewBox="0 0 180 320" width="180" height="320"><rect x="0" y="0" width="180" height="320" rx="12" fill="transparent" stroke="none" stroke-width="1"/><rect x="6" y="6" width="168" height="308" rx="22" fill="#111827" stroke="none" stroke-width="1"/><rect x="12" y="14" width="156" height="292" rx="16" fill="#ffffff" stroke="none" stroke-width="1"/><text x="150" y="28" font-size="8" font-weight="700" fill="#111827" text-anchor="middle" direction="ltr" font-family="Segoe UI, Tahoma, Arial, 'Noto Sans Arabic', sans-serif">9:41</text><rect x="12" y="34" width="156" height="150" rx="0" fill="#f8fafc" stroke="none" stroke-width="1"/><rect x="22" y="44" width="136" height="24" rx="6" fill="#1e293b" stroke="none" stroke-width="1"/><text x="90" y="60" font-size="9" font-weight="700" fill="#fff" text-anchor="middle" direction="ltr" font-family="Segoe UI, Tahoma, Arial, 'Noto Sans Arabic', sans-serif">EHA_ Rouster Maker</text><rect x="22" y="76" width="136" height="90" rx="6" fill="#ffffff" stroke="#e2e8f0" stroke-width="1"/><text x="90" y="124" font-size="9" font-weight="400" fill="#475569" text-anchor="middle" direction="rtl" font-family="Segoe UI, Tahoma, Arial, 'Noto Sans Arabic', sans-serif">البرنامج مفتوح في Safari</text><rect x="20" y="246" width="140" height="22" rx="11" fill="#e5e7eb" stroke="none" stroke-width="1"/><text x="90" y="261" font-size="7.5" font-weight="400" fill="#374151" text-anchor="middle" direction="ltr" font-family="Segoe UI, Tahoma, Arial, 'Noto Sans Arabic', sans-serif">drhamdymahdy.github.io</text><rect x="12" y="274" width="156" height="32" rx="0" fill="#f9fafb" stroke="none" stroke-width="1"/><g fill="none" stroke="#2563eb" stroke-width="2" stroke-linecap="round" stroke-linejoin="round"><path d="M84 294 v-12 M79 286 l5 -5 l5 5"/><path d="M78 288 h-3 v10 h18 v-10 h-3"/></g><rect x="67" y="274" width="34" height="32" rx="8" fill="none" stroke="#f59e0b" stroke-width="3"/><text x="34" y="294" font-size="16" font-weight="400" fill="#2563eb" text-anchor="middle" direction="ltr" font-family="Segoe UI, Tahoma, Arial, 'Noto Sans Arabic', sans-serif">‹</text><text x="146" y="294" font-size="11" font-weight="400" fill="#2563eb" text-anchor="middle" direction="ltr" font-family="Segoe UI, Tahoma, Arial, 'Noto Sans Arabic', sans-serif">⧉</text><circle cx="160" cy="238" r="11" fill="#f59e0b" stroke="#fff" stroke-width="2"/><text x="160" y="242" font-size="12" font-weight="700" fill="#fff" text-anchor="middle" direction="ltr" font-family="Segoe UI, Tahoma, Arial, 'Noto Sans Arabic', sans-serif">1</text></svg>
